Plot: An agoraphobic father teams up with a renegade priest to save his daughter from the clutches of a gang of twisted feral children who committed an act of violence against his family years earlier. 

MediaInfo 0.7.61:
General
Complete name                            : D:2012_Citadel.avi
Format                                   : AVI
Format/Info                              : Audio Video Interleave
File size                                : 1.47 GiB
Duration                                 : 1h 24mn
Overall bit rate                         : 2 487 Kbps
Writing application                      : VirtualDubMod 1.5.10.2 (build 2540/release)
Writing library                          : VirtualDubMod build 2540/release

Video
ID                                       : 0
Format                                   : MPEG-4 Visual
Format profile                           : Advanced Simple@L5
Format settings, BVOP                    : 2
Format settings, QPel                    : No
Format settings, GMC                     : No warppoints
Format settings, Matrix                  : Custom
Codec ID                                 : XVID
Codec ID/Hint                            : XviD
Duration                                 : 1h 24mn
Bit rate                                 : 2 350 Kbps
Width                                    : 720 pixels
Height                                   : 400 pixels
Display aspect ratio                     : 16:9
Frame rate                               : 23.976 fps
Color space                              : YUV
Chroma subsampling                       : 4:2:0
Bit depth                                : 8 bits
Scan type                                : Progressive
Compression mode                         : Lossy
Bits/(Pixel*Frame)                       : 0.340
Stream size                              : 1.39 GiB (94%)
Writing library                          : XviD 73

Audio
ID                                       : 1
Format                                   : MPEG Audio
Format version                           : Version 1
Format profile                           : Layer 3
Mode                                     : Joint stereo
Mode extension                           : MS Stereo
Codec ID                                 : 55
Codec ID/Hint                            : MP3
Duration                                 : 1h 24mn
Bit rate mode                            : Constant
Bit rate                                 : 128 Kbps
Channel(s)                               : 2 channels
Sampling rate                            : 48.0 KHz
Compression mode                         : Lossy
Stream size                              : 77.3 MiB (5%)
Alignment                                : Aligned on interleaves
Interleave, duration                     : 42 ms (1.00 video frame)
Interleave, preload duration             : 504 ms

Screenshots: 
http://img195.imageshack.us/img195/6269/grab27d.png 
http://img13.imageshack.us/img13/6140/grab28v.png 
http://img687.imageshack.us/img687/290/grab29x.png 
http://img534.imageshack.us/img534/3146/grab30n.png 
http://img651.imageshack.us/img651/5343/grab31m.png 
http://img254.imageshack.us/img254/5674/grab32qw.png 
http://img35.imageshack.us/img35/1043/grab33p.png 
http://img507.imageshack.us/img507/3111/grab34.png 
http://img577.imageshack.us/img577/1112/grab35z.png 
http://img59.imageshack.us/img59/5371/grab36d.png 
http://img221.imageshack.us/img221/9606/grab37t.png 
http://img266.imageshack.us/img266/225/grab38f.png